<?xml version="1.0" encoding="utf-8"?>
<!-- Generator: Adobe Illustrator 22.1.0, SVG Export Plug-In . SVG Version: 6.00 Build 0)  -->
<svg version="1.1" id="Layer_1" xmlns="http://www.w3.org/2000/svg" xmlns:xlink="http://www.w3.org/1999/xlink" x="0px" y="0px"
	 viewBox="0 0 70 70" style="enable-background:new 0 0 70 70;" xml:space="preserve">
<style type="text/css">
	.st0{filter:url(#Adobe_OpacityMaskFilter);}
	.st1{fill:#FFFFFF;}
	.st2{mask:url(#b_1_);}
	.st3{fill:url(#SVGID_1_);}
	.st4{fill:#FFFFFF;fill-opacity:0.383;}
	.st5{opacity:0.324;fill:#393939;enable-background:new    ;}
	.st6{fill-opacity:0.383;}
	.st7{display:none;fill-opacity:0.3;}
	.st8{display:none;fill:#FFFFFF;}
	.st9{opacity:0.27;}
</style>
<g>
	<defs>
		<filter id="Adobe_OpacityMaskFilter" filterUnits="userSpaceOnUse" x="0" y="0" width="70" height="70">
			<feColorMatrix  type="matrix" values="1 0 0 0 0  0 1 0 0 0  0 0 1 0 0  0 0 0 1 0"/>
		</filter>
	</defs>
	<mask maskUnits="userSpaceOnUse" x="0" y="0" width="70" height="70" id="b_1_">
		<g class="st0">
			<path id="a_1_" class="st1" d="M4,0h61c4,0,5,1,5,5v60c0,4-1,5-5,5H4c-3,0-4-1-4-5V5C0,1,1,0,4,0z"/>
		</g>
	</mask>
	<g class="st2">
		
			<linearGradient id="SVGID_1_" gradientUnits="userSpaceOnUse" x1="-318.368" y1="888.1679" x2="-319.368" y2="887.1818" gradientTransform="matrix(70 0 0 -70 22356 62172)">
			<stop  offset="0" style="stop-color:#955AA5"/>
			<stop  offset="1" style="stop-color:#6E286B"/>
		</linearGradient>
		<path class="st3" d="M0,0h70v70H0V0z"/>
		<path class="st4" d="M4,1h61c2.7,0,4.3,0.7,5,2V0H0v3C0.7,1.7,2,1,4,1z"/>
		<path class="st5" d="M32.2,69H4c-2,0-4-1-4-4V39.2l17.3-17.5c1.1-1.1,2.5-1.7,4-1.7h27c1.5,0,2.6,1.2,2.6,2.6v3.6l-0.1,12.1
			l0.1,2.8v6.3c0,1.6-0.6,3.2-1.8,4.4L32.2,69z"/>
		<path class="st6" d="M4,69h61c2.7,0,4.3-1,5-3v4H0v-4C0.7,68,2,69,4,69z"/>
		<path class="st7" d="M51,22H19v3.8h32V22z M53,40.8V37l-2-9.4H19L17,37v3.8h2V52h20V40.8h8V52h4V40.8H53z M35,48.2H23v-7.5h12
			V48.2z"/>
		<path class="st8" d="M51,20H19v3.8h32V20z M53,38.8V35l-2-9.4H19L17,35v3.8h2V50h20V38.8h8V50h4V38.8H53z M35,46.2H23v-7.5h12
			V46.2z"/>
		<g class="st9">
			<g>
				<path d="M32.8,43.2H21.7c-0.3,0-0.5-0.2-0.5-0.5V24.6c0-0.3,0.2-0.5,0.5-0.5h26.7c0.3,0,0.5,0.2,0.5,0.5v4
					c0.8,0.1,1.5,0.3,2.1,0.8v-4.7c0-1.4-1.2-2.6-2.6-2.6H21.7c-1.4,0-2.6,1.2-2.6,2.6v18.1c0,1.4,1.2,2.6,2.6,2.6h8.9v3.5h-1.4
					c-0.9,0-1.6,0.7-1.6,1.6s0.7,1.6,1.6,1.6h4.5c-0.6-0.8-0.9-1.7-0.9-2.8L32.8,43.2L32.8,43.2z"/>
				<path d="M41.8,50.4v-2.3h-4.7V33.3c0-0.3,0.3-0.6,0.6-0.6h10.6c0.3,0,0.6,0.3,0.6,0.6v4.6h0.8c0.5,0,0.9,0.1,1.3,0.4v-4.9
					c0-1.5-1.2-2.7-2.7-2.7H37.6c-1.5,0-2.7,1.2-2.7,2.7v15.9c0,1.5,1.2,2.7,2.7,2.7h4.6C41.9,51.5,41.8,50.9,41.8,50.4z"/>
				<path d="M49.6,39.2h-5.2c-0.7,0-1.3,0.6-1.3,1.3v9.8c0,0.7,0.6,1.3,1.3,1.3h5.2c0.7,0,1.3-0.6,1.3-1.3v-9.8
					C50.9,39.8,50.3,39.2,49.6,39.2z M44.7,40.8h4.6v8.5h-4.6V40.8z M47,51.1c-0.1,0-0.3-0.1-0.4-0.2c-0.1-0.1-0.2-0.2-0.2-0.4
					c0-0.3,0.3-0.6,0.6-0.6c0.3,0,0.6,0.3,0.6,0.6c0,0.2-0.1,0.3-0.2,0.4C47.3,51,47.2,51.1,47,51.1z"/>
			</g>
		</g>
		<g>
			<path class="st1" d="M32.8,41.2H21.7c-0.3,0-0.5-0.2-0.5-0.5V22.6c0-0.3,0.2-0.5,0.5-0.5h26.7c0.3,0,0.5,0.2,0.5,0.5v4
				c0.8,0.1,1.5,0.3,2.1,0.8v-4.7c0-1.4-1.2-2.6-2.6-2.6H21.7c-1.4,0-2.6,1.2-2.6,2.6v18.1c0,1.4,1.2,2.6,2.6,2.6h8.9v3.5h-1.4
				c-0.9,0-1.6,0.7-1.6,1.6s0.7,1.6,1.6,1.6h4.5c-0.6-0.8-0.9-1.7-0.9-2.8L32.8,41.2L32.8,41.2z"/>
			<path class="st1" d="M41.8,48.4v-2.3h-4.7V31.3c0-0.3,0.3-0.6,0.6-0.6h10.6c0.3,0,0.6,0.3,0.6,0.6v4.6h0.8c0.5,0,0.9,0.1,1.3,0.4
				v-4.9c0-1.5-1.2-2.7-2.7-2.7H37.6c-1.5,0-2.7,1.2-2.7,2.7v15.9c0,1.5,1.2,2.7,2.7,2.7h4.6C41.9,49.5,41.8,48.9,41.8,48.4z"/>
			<path class="st1" d="M49.6,37.2h-5.2c-0.7,0-1.3,0.6-1.3,1.3v9.8c0,0.7,0.6,1.3,1.3,1.3h5.2c0.7,0,1.3-0.6,1.3-1.3v-9.8
				C50.9,37.8,50.3,37.2,49.6,37.2z M44.7,38.8h4.6v8.5h-4.6V38.8z M47,49.1c-0.1,0-0.3-0.1-0.4-0.2c-0.1-0.1-0.2-0.2-0.2-0.4
				c0-0.3,0.3-0.6,0.6-0.6c0.3,0,0.6,0.3,0.6,0.6c0,0.2-0.1,0.3-0.2,0.4C47.3,49,47.2,49.1,47,49.1z"/>
		</g>
	</g>
</g>
</svg>
